<svg width="322" height="64" viewBox="0 0 322 64" fill="none" xmlns="http://www.w3.org/2000/svg">
<g filter="url(#filter0_d_1_5)">
<mask id="path-1-outside-1_1_5" maskUnits="userSpaceOnUse" x="-1" y="-1" width="316" height="57" fill="black">
<rect fill="white" x="-1" y="-1" width="316" height="57"/>
<path d="M32.3438 55L11.875 10.4297V45.8203C11.875 49.0755 12.2266 51.1068 12.9297 51.9141C13.8932 53.0078 15.4167 53.5547 17.5 53.5547H19.375V55H0.9375V53.5547H2.8125C5.05208 53.5547 6.64062 52.8776 7.57812 51.5234C8.15104 50.6901 8.4375 48.7891 8.4375 45.8203V11.2109C8.4375 8.86719 8.17708 7.17448 7.65625 6.13281C7.29167 5.3776 6.61458 4.7526 5.625 4.25781C4.66146 3.73698 3.09896 3.47656 0.9375 3.47656V2.03125H15.9375L35.1562 43.4766L54.0625 2.03125H69.0625V3.47656H67.2266C64.9609 3.47656 63.3594 4.15365 62.4219 5.50781C61.849 6.34115 61.5625 8.24219 61.5625 11.2109V45.8203C61.5625 49.0755 61.9271 51.1068 62.6562 51.9141C63.6198 53.0078 65.1432 53.5547 67.2266 53.5547H69.0625V55H46.5625V53.5547H48.4375C50.7031 53.5547 52.2917 52.8776 53.2031 51.5234C53.776 50.6901 54.0625 48.7891 54.0625 45.8203V10.4297L33.6328 55H32.3438ZM107.383 37.2656H86.875L83.2812 45.625C82.3958 47.6823 81.9531 49.2188 81.9531 50.2344C81.9531 51.0417 82.3307 51.7578 83.0859 52.3828C83.8672 52.9818 85.5339 53.3724 88.0859 53.5547V55H71.4062V53.5547C73.6198 53.1641 75.0521 52.6562 75.7031 52.0312C77.0312 50.7812 78.5026 48.2422 80.1172 44.4141L98.75 0.820312H100.117L118.555 44.8828C120.039 48.4245 121.38 50.7292 122.578 51.7969C123.802 52.8385 125.495 53.4245 127.656 53.5547V55H106.758V53.5547C108.867 53.4505 110.286 53.099 111.016 52.5C111.771 51.901 112.148 51.1719 112.148 50.3125C112.148 49.1667 111.628 47.3568 110.586 44.8828L107.383 37.2656ZM106.289 34.375L97.3047 12.9688L88.0859 34.375H106.289ZM129.961 55V53.5547H131.953C134.193 53.5547 135.781 52.8385 136.719 51.4062C137.292 50.5469 137.578 48.6198 137.578 45.625V11.4062C137.578 8.09896 137.214 6.02865 136.484 5.19531C135.469 4.04948 133.958 3.47656 131.953 3.47656H129.961V2.03125H151.523C159.44 2.03125 165.456 2.92969 169.57 4.72656C173.711 6.52344 177.031 9.51823 179.531 13.7109C182.057 17.9036 183.32 22.7474 183.32 28.2422C183.32 35.612 181.081 41.7708 176.602 46.7188C171.576 52.2396 163.919 55 153.633 55H129.961ZM145.078 51.1719C148.385 51.901 151.159 52.2656 153.398 52.2656C159.44 52.2656 164.453 50.1432 168.438 45.8984C172.422 41.6536 174.414 35.8984 174.414 28.6328C174.414 21.3151 172.422 15.5469 168.438 11.3281C164.453 7.10938 159.336 5 153.086 5C150.742 5 148.073 5.3776 145.078 6.13281V51.1719ZM223.008 37.2656H202.5L198.906 45.625C198.021 47.6823 197.578 49.2188 197.578 50.2344C197.578 51.0417 197.956 51.7578 198.711 52.3828C199.492 52.9818 201.159 53.3724 203.711 53.5547V55H187.031V53.5547C189.245 53.1641 190.677 52.6562 191.328 52.0312C192.656 50.7812 194.128 48.2422 195.742 44.4141L214.375 0.820312H215.742L234.18 44.8828C235.664 48.4245 237.005 50.7292 238.203 51.7969C239.427 52.8385 241.12 53.4245 243.281 53.5547V55H222.383V53.5547C224.492 53.4505 225.911 53.099 226.641 52.5C227.396 51.901 227.773 51.1719 227.773 50.3125C227.773 49.1667 227.253 47.3568 226.211 44.8828L223.008 37.2656ZM221.914 34.375L212.93 12.9688L203.711 34.375H221.914ZM276.953 55L256.484 10.4297V45.8203C256.484 49.0755 256.836 51.1068 257.539 51.9141C258.503 53.0078 260.026 53.5547 262.109 53.5547H263.984V55H245.547V53.5547H247.422C249.661 53.5547 251.25 52.8776 252.188 51.5234C252.76 50.6901 253.047 48.7891 253.047 45.8203V11.2109C253.047 8.86719 252.786 7.17448 252.266 6.13281C251.901 5.3776 251.224 4.7526 250.234 4.25781C249.271 3.73698 247.708 3.47656 245.547 3.47656V2.03125H260.547L279.766 43.4766L298.672 2.03125H313.672V3.47656H311.836C309.57 3.47656 307.969 4.15365 307.031 5.50781C306.458 6.34115 306.172 8.24219 306.172 11.2109V45.8203C306.172 49.0755 306.536 51.1068 307.266 51.9141C308.229 53.0078 309.753 53.5547 311.836 53.5547H313.672V55H291.172V53.5547H293.047C295.312 53.5547 296.901 52.8776 297.812 51.5234C298.385 50.6901 298.672 48.7891 298.672 45.8203V10.4297L278.242 55H276.953Z"/>
</mask>
<path d="M32.3438 55L11.875 10.4297V45.8203C11.875 49.0755 12.2266 51.1068 12.9297 51.9141C13.8932 53.0078 15.4167 53.5547 17.5 53.5547H19.375V55H0.9375V53.5547H2.8125C5.05208 53.5547 6.64062 52.8776 7.57812 51.5234C8.15104 50.6901 8.4375 48.7891 8.4375 45.8203V11.2109C8.4375 8.86719 8.17708 7.17448 7.65625 6.13281C7.29167 5.3776 6.61458 4.7526 5.625 4.25781C4.66146 3.73698 3.09896 3.47656 0.9375 3.47656V2.03125H15.9375L35.1562 43.4766L54.0625 2.03125H69.0625V3.47656H67.2266C64.9609 3.47656 63.3594 4.15365 62.4219 5.50781C61.849 6.34115 61.5625 8.24219 61.5625 11.2109V45.8203C61.5625 49.0755 61.9271 51.1068 62.6562 51.9141C63.6198 53.0078 65.1432 53.5547 67.2266 53.5547H69.0625V55H46.5625V53.5547H48.4375C50.7031 53.5547 52.2917 52.8776 53.2031 51.5234C53.776 50.6901 54.0625 48.7891 54.0625 45.8203V10.4297L33.6328 55H32.3438ZM107.383 37.2656H86.875L83.2812 45.625C82.3958 47.6823 81.9531 49.2188 81.9531 50.2344C81.9531 51.0417 82.3307 51.7578 83.0859 52.3828C83.8672 52.9818 85.5339 53.3724 88.0859 53.5547V55H71.4062V53.5547C73.6198 53.1641 75.0521 52.6562 75.7031 52.0312C77.0312 50.7812 78.5026 48.2422 80.1172 44.4141L98.75 0.820312H100.117L118.555 44.8828C120.039 48.4245 121.38 50.7292 122.578 51.7969C123.802 52.8385 125.495 53.4245 127.656 53.5547V55H106.758V53.5547C108.867 53.4505 110.286 53.099 111.016 52.5C111.771 51.901 112.148 51.1719 112.148 50.3125C112.148 49.1667 111.628 47.3568 110.586 44.8828L107.383 37.2656ZM106.289 34.375L97.3047 12.9688L88.0859 34.375H106.289ZM129.961 55V53.5547H131.953C134.193 53.5547 135.781 52.8385 136.719 51.4062C137.292 50.5469 137.578 48.6198 137.578 45.625V11.4062C137.578 8.09896 137.214 6.02865 136.484 5.19531C135.469 4.04948 133.958 3.47656 131.953 3.47656H129.961V2.03125H151.523C159.44 2.03125 165.456 2.92969 169.57 4.72656C173.711 6.52344 177.031 9.51823 179.531 13.7109C182.057 17.9036 183.32 22.7474 183.32 28.2422C183.32 35.612 181.081 41.7708 176.602 46.7188C171.576 52.2396 163.919 55 153.633 55H129.961ZM145.078 51.1719C148.385 51.901 151.159 52.2656 153.398 52.2656C159.44 52.2656 164.453 50.1432 168.438 45.8984C172.422 41.6536 174.414 35.8984 174.414 28.6328C174.414 21.3151 172.422 15.5469 168.438 11.3281C164.453 7.10938 159.336 5 153.086 5C150.742 5 148.073 5.3776 145.078 6.13281V51.1719ZM223.008 37.2656H202.5L198.906 45.625C198.021 47.6823 197.578 49.2188 197.578 50.2344C197.578 51.0417 197.956 51.7578 198.711 52.3828C199.492 52.9818 201.159 53.3724 203.711 53.5547V55H187.031V53.5547C189.245 53.1641 190.677 52.6562 191.328 52.0312C192.656 50.7812 194.128 48.2422 195.742 44.4141L214.375 0.820312H215.742L234.18 44.8828C235.664 48.4245 237.005 50.7292 238.203 51.7969C239.427 52.8385 241.12 53.4245 243.281 53.5547V55H222.383V53.5547C224.492 53.4505 225.911 53.099 226.641 52.5C227.396 51.901 227.773 51.1719 227.773 50.3125C227.773 49.1667 227.253 47.3568 226.211 44.8828L223.008 37.2656ZM221.914 34.375L212.93 12.9688L203.711 34.375H221.914ZM276.953 55L256.484 10.4297V45.8203C256.484 49.0755 256.836 51.1068 257.539 51.9141C258.503 53.0078 260.026 53.5547 262.109 53.5547H263.984V55H245.547V53.5547H247.422C249.661 53.5547 251.25 52.8776 252.188 51.5234C252.76 50.6901 253.047 48.7891 253.047 45.8203V11.2109C253.047 8.86719 252.786 7.17448 252.266 6.13281C251.901 5.3776 251.224 4.7526 250.234 4.25781C249.271 3.73698 247.708 3.47656 245.547 3.47656V2.03125H260.547L279.766 43.4766L298.672 2.03125H313.672V3.47656H311.836C309.57 3.47656 307.969 4.15365 307.031 5.50781C306.458 6.34115 306.172 8.24219 306.172 11.2109V45.8203C306.172 49.0755 306.536 51.1068 307.266 51.9141C308.229 53.0078 309.753 53.5547 311.836 53.5547H313.672V55H291.172V53.5547H293.047C295.312 53.5547 296.901 52.8776 297.812 51.5234C298.385 50.6901 298.672 48.7891 298.672 45.8203V10.4297L278.242 55H276.953Z" fill="black"/>
<path d="M32.3438 55L31.435 55.4173L31.7026 56H32.3438V55ZM11.875 10.4297L12.7838 10.0123L10.875 10.4297H11.875ZM12.9297 51.9141L12.1756 52.5709L12.1793 52.5751L12.9297 51.9141ZM19.375 53.5547H20.375V52.5547H19.375V53.5547ZM19.375 55V56H20.375V55H19.375ZM0.9375 55H-0.0625V56H0.9375V55ZM0.9375 53.5547V52.5547H-0.0625V53.5547H0.9375ZM7.57812 51.5234L8.40032 52.0927L8.40217 52.09L7.57812 51.5234ZM7.65625 6.13281L6.75561 6.5676L6.76182 6.58003L7.65625 6.13281ZM5.625 4.25781L5.14948 5.13752L5.16352 5.14511L5.17779 5.15224L5.625 4.25781ZM0.9375 3.47656H-0.0625V4.47656H0.9375V3.47656ZM0.9375 2.03125V1.03125H-0.0625V2.03125H0.9375ZM15.9375 2.03125L16.8447 1.61057L16.5761 1.03125H15.9375V2.03125ZM35.1562 43.4766L34.249 43.8972L35.1637 45.8697L36.0661 43.8916L35.1562 43.4766ZM54.0625 2.03125V1.03125H53.4195L53.1527 1.61622L54.0625 2.03125ZM69.0625 2.03125H70.0625V1.03125H69.0625V2.03125ZM69.0625 3.47656V4.47656H70.0625V3.47656H69.0625ZM62.4219 5.50781L61.5997 4.9386L61.5978 4.94128L62.4219 5.50781ZM62.6562 51.9141L63.4067 51.253L63.3984 51.2438L62.6562 51.9141ZM69.0625 53.5547H70.0625V52.5547H69.0625V53.5547ZM69.0625 55V56H70.0625V55H69.0625ZM46.5625 55H45.5625V56H46.5625V55ZM46.5625 53.5547V52.5547H45.5625V53.5547H46.5625ZM53.2031 51.5234L52.379 50.9569L52.3735 50.9651L53.2031 51.5234ZM54.0625 10.4297H55.0625L53.1534 10.013L54.0625 10.4297ZM33.6328 55V56H34.2745L34.5419 55.4167L33.6328 55ZM33.2525 54.5827L12.7838 10.0123L10.9662 10.847L31.435 55.4173L33.2525 54.5827ZM10.875 10.4297V45.8203H12.875V10.4297H10.875ZM10.875 45.8203C10.875 47.4764 10.9639 48.8612 11.1533 49.9557C11.3362 51.0123 11.6365 51.9519 12.1756 52.5708L13.6838 51.2573C13.5198 51.069 13.2927 50.5892 13.124 49.6146C12.9619 48.6779 12.875 47.4195 12.875 45.8203H10.875ZM12.1793 52.5751C13.4029 53.964 15.2562 54.5547 17.5 54.5547V52.5547C15.5772 52.5547 14.3836 52.0516 13.68 51.253L12.1793 52.5751ZM17.5 54.5547H19.375V52.5547H17.5V54.5547ZM18.375 53.5547V55H20.375V53.5547H18.375ZM19.375 54H0.9375V56H19.375V54ZM1.9375 55V53.5547H-0.0625V55H1.9375ZM0.9375 54.5547H2.8125V52.5547H0.9375V54.5547ZM2.8125 54.5547C5.25124 54.5547 7.213 53.8077 8.40032 52.0926L6.75593 50.9542C6.06825 51.9475 4.85293 52.5547 2.8125 52.5547V54.5547ZM8.40217 52.09C8.82122 51.4804 9.06248 50.6105 9.21149 49.6217C9.365 48.6029 9.4375 47.3308 9.4375 45.8203H7.4375C7.4375 47.2785 7.36677 48.4414 7.23382 49.3237C7.09637 50.2358 6.90795 50.7331 6.75408 50.9569L8.40217 52.09ZM9.4375 45.8203V11.2109H7.4375V45.8203H9.4375ZM9.4375 11.2109C9.4375 8.83848 9.18127 6.94678 8.55068 5.6856L6.76182 6.58003C7.1729 7.40218 7.4375 8.8959 7.4375 11.2109H9.4375ZM8.5568 5.69806C8.06933 4.68831 7.19641 3.92548 6.07221 3.36339L5.17779 5.15224C6.03276 5.57973 6.514 6.0669 6.7557 6.56756L8.5568 5.69806ZM6.10052 3.37811C4.90737 2.73316 3.13293 2.47656 0.9375 2.47656V4.47656C3.06498 4.47656 4.41554 4.74079 5.14948 5.13752L6.10052 3.37811ZM1.9375 3.47656V2.03125H-0.0625V3.47656H1.9375ZM0.9375 3.03125H15.9375V1.03125H0.9375V3.03125ZM15.0303 2.45193L34.249 43.8972L36.0635 43.0559L16.8447 1.61057L15.0303 2.45193ZM36.0661 43.8916L54.9723 2.44628L53.1527 1.61622L34.2464 43.0615L36.0661 43.8916ZM54.0625 3.03125H69.0625V1.03125H54.0625V3.03125ZM68.0625 2.03125V3.47656H70.0625V2.03125H68.0625ZM69.0625 2.47656H67.2266V4.47656H69.0625V2.47656ZM67.2266 2.47656C64.7669 2.47656 62.7891 3.22053 61.5997 4.9386L63.2441 6.07702C63.9296 5.08676 65.155 4.47656 67.2266 4.47656V2.47656ZM61.5978 4.94128C61.1788 5.55081 60.9375 6.42071 60.7885 7.40959C60.635 8.42835 60.5625 9.7004 60.5625 11.2109H62.5625C62.5625 9.75272 62.6332 8.58988 62.7662 7.7076C62.9036 6.79543 63.092 6.29815 63.2459 6.07434L61.5978 4.94128ZM60.5625 11.2109V45.8203H62.5625V11.2109H60.5625ZM60.5625 45.8203C60.5625 47.4775 60.6547 48.8646 60.8517 49.9618C61.042 51.0224 61.355 51.9653 61.9141 52.5843L63.3984 51.2438C63.2283 51.0555 62.9944 50.5792 62.8202 49.6085C62.6526 48.6745 62.5625 47.4184 62.5625 45.8203H60.5625ZM61.9059 52.5751C63.1294 53.964 64.9827 54.5547 67.2266 54.5547V52.5547C65.3037 52.5547 64.1101 52.0516 63.4066 51.253L61.9059 52.5751ZM67.2266 54.5547H69.0625V52.5547H67.2266V54.5547ZM68.0625 53.5547V55H70.0625V53.5547H68.0625ZM69.0625 54H46.5625V56H69.0625V54ZM47.5625 55V53.5547H45.5625V55H47.5625ZM46.5625 54.5547H48.4375V52.5547H46.5625V54.5547ZM48.4375 54.5547C50.8952 54.5547 52.8687 53.8113 54.0327 52.0818L52.3735 50.9651C51.7147 51.9439 50.511 52.5547 48.4375 52.5547V54.5547ZM54.0272 52.09C54.4462 51.4804 54.6875 50.6105 54.8365 49.6217C54.99 48.6029 55.0625 47.3308 55.0625 45.8203H53.0625C53.0625 47.2785 52.9918 48.4414 52.8588 49.3237C52.7214 50.2358 52.533 50.7331 52.3791 50.9569L54.0272 52.09ZM55.0625 45.8203V10.4297H53.0625V45.8203H55.0625ZM53.1534 10.013L32.7238 54.5833L34.5419 55.4167L54.9716 10.8464L53.1534 10.013ZM33.6328 54H32.3438V56H33.6328V54ZM107.383 37.2656L108.305 36.878L108.047 36.2656H107.383V37.2656ZM86.875 37.2656V36.2656H86.2164L85.9563 36.8707L86.875 37.2656ZM83.2812 45.625L84.1998 46.0203L84.2 46.02L83.2812 45.625ZM83.0859 52.3828L82.4484 53.1532L82.4627 53.1651L82.4775 53.1764L83.0859 52.3828ZM88.0859 53.5547H89.0859V52.6236L88.1572 52.5572L88.0859 53.5547ZM88.0859 55V56H89.0859V55H88.0859ZM71.4062 55H70.4062V56H71.4062V55ZM71.4062 53.5547L71.2325 52.5699L70.4062 52.7157V53.5547H71.4062ZM75.7031 52.0312L75.0177 51.303L75.0106 51.3099L75.7031 52.0312ZM80.1172 44.4141L79.1976 44.021L79.1958 44.0254L80.1172 44.4141ZM98.75 0.820312V-0.179688H98.0899L97.8305 0.427288L98.75 0.820312ZM100.117 0.820312L101.04 0.434304L100.783 -0.179688H100.117V0.820312ZM118.555 44.8828L117.632 45.2688L117.632 45.2694L118.555 44.8828ZM122.578 51.7969L121.913 52.5434L121.921 52.551L121.93 52.5584L122.578 51.7969ZM127.656 53.5547H128.656V52.6131L127.716 52.5565L127.656 53.5547ZM127.656 55V56H128.656V55H127.656ZM106.758 55H105.758V56H106.758V55ZM106.758 53.5547L106.708 52.5559L105.758 52.6029V53.5547H106.758ZM111.016 52.5L110.394 51.7165L110.388 51.7218L110.381 51.7273L111.016 52.5ZM110.586 44.8828L109.664 45.2704L109.664 45.2709L110.586 44.8828ZM106.289 34.375V35.375H107.793L107.211 33.988L106.289 34.375ZM97.3047 12.9688L98.2268 12.5817L97.3165 10.413L96.3862 12.5732L97.3047 12.9688ZM88.0859 34.375L87.1675 33.9795L86.5665 35.375H88.0859V34.375ZM107.383 36.2656H86.875V38.2656H107.383V36.2656ZM85.9563 36.8707L82.3625 45.23L84.2 46.02L87.7937 37.6606L85.9563 36.8707ZM82.3627 45.2297C81.4729 47.2971 80.9531 48.9974 80.9531 50.2344H82.9531C82.9531 49.4401 83.3187 48.0675 84.1998 46.0203L82.3627 45.2297ZM80.9531 50.2344C80.9531 51.4034 81.5177 52.383 82.4484 53.1532L83.7235 51.6124C83.1437 51.1326 82.9531 50.6799 82.9531 50.2344H80.9531ZM82.4775 53.1764C83.0349 53.6038 83.8096 53.8914 84.6937 54.0986C85.5971 54.3104 86.7089 54.4589 88.0147 54.5521L88.1572 52.5572C86.9109 52.4682 85.9133 52.3303 85.1501 52.1514C84.3675 51.968 83.9182 51.7608 83.6944 51.5892L82.4775 53.1764ZM87.0859 53.5547V55H89.0859V53.5547H87.0859ZM88.0859 54H71.4062V56H88.0859V54ZM72.4062 55V53.5547H70.4062V55H72.4062ZM71.58 54.5395C72.7181 54.3386 73.6881 54.1023 74.4748 53.8234C75.2453 53.5502 75.9207 53.2086 76.3957 52.7526L75.0106 51.3099C74.8345 51.4789 74.4682 51.7037 73.8065 51.9383C73.1608 52.1672 72.3079 52.3801 71.2325 52.5699L71.58 54.5395ZM76.3885 52.7594C77.8837 51.3522 79.4218 48.636 81.0386 44.8027L79.1958 44.0254C77.5834 47.8483 76.1788 50.2103 75.0178 51.3031L76.3885 52.7594ZM81.0367 44.8071L99.6695 1.21334L97.8305 0.427288L79.1977 44.021L81.0367 44.8071ZM98.75 1.82031H100.117V-0.179688H98.75V1.82031ZM99.1947 1.20632L117.632 45.2688L119.477 44.4968L101.04 0.434304L99.1947 1.20632ZM117.632 45.2694C119.115 48.8079 120.528 51.3093 121.913 52.5434L123.243 51.0504C122.232 50.149 120.963 48.0411 119.477 44.4963L117.632 45.2694ZM121.93 52.5584C123.368 53.7823 125.293 54.4141 127.596 54.5529L127.716 52.5565C125.697 52.4348 124.236 51.8948 123.226 51.0353L121.93 52.5584ZM126.656 53.5547V55H128.656V53.5547H126.656ZM127.656 54H106.758V56H127.656V54ZM107.758 55V53.5547H105.758V55H107.758ZM106.807 54.5535C107.901 54.4995 108.852 54.38 109.645 54.1836C110.427 53.9897 111.125 53.7044 111.65 53.2727L110.381 51.7273C110.177 51.8945 109.801 52.0845 109.164 52.2422C108.538 52.3973 107.724 52.5057 106.708 52.5559L106.807 54.5535ZM111.637 53.2835C112.598 52.5211 113.148 51.517 113.148 50.3125H111.148C111.148 50.8268 110.943 51.281 110.394 51.7165L111.637 53.2835ZM113.148 50.3125C113.148 48.9455 112.55 46.9699 111.508 44.4948L109.664 45.2709C110.705 47.7437 111.148 49.3879 111.148 50.3125H113.148ZM111.508 44.4952L108.305 36.878L106.461 37.6533L109.664 45.2704L111.508 44.4952ZM107.211 33.988L98.2268 12.5817L96.3826 13.3558L105.367 34.762L107.211 33.988ZM96.3862 12.5732L87.1675 33.9795L89.0044 34.7705L98.2231 13.3643L96.3862 12.5732ZM88.0859 35.375H106.289V33.375H88.0859V35.375ZM129.961 55H128.961V56H129.961V55ZM129.961 53.5547V52.5547H128.961V53.5547H129.961ZM136.719 51.4062L135.887 50.8515L135.882 50.8586L136.719 51.4062ZM136.484 5.19531L137.237 4.53679L137.233 4.532L136.484 5.19531ZM129.961 3.47656H128.961V4.47656H129.961V3.47656ZM129.961 2.03125V1.03125H128.961V2.03125H129.961ZM169.57 4.72656L169.17 5.64299L169.172 5.64391L169.57 4.72656ZM179.531 13.7109L178.672 14.2231L178.675 14.227L179.531 13.7109ZM176.602 46.7188L177.341 47.3919L177.343 47.3899L176.602 46.7188ZM145.078 51.1719H144.078V51.9754L144.863 52.1484L145.078 51.1719ZM145.078 6.13281L144.834 5.16317L144.078 5.35368V6.13281H145.078ZM130.961 55V53.5547H128.961V55H130.961ZM129.961 54.5547H131.953V52.5547H129.961V54.5547ZM131.953 54.5547C134.414 54.5547 136.377 53.7537 137.555 51.9539L135.882 50.8586C135.185 51.9234 133.972 52.5547 131.953 52.5547V54.5547ZM137.551 51.961C137.963 51.3426 138.203 50.4659 138.352 49.4634C138.506 48.4327 138.578 47.1485 138.578 45.625H136.578C136.578 47.0963 136.507 48.273 136.374 49.1694C136.237 50.094 136.047 50.6105 135.887 50.8515L137.551 51.961ZM138.578 45.625V11.4062H136.578V45.625H138.578ZM138.578 11.4062C138.578 9.72341 138.486 8.31483 138.29 7.19961C138.099 6.12032 137.788 5.16685 137.237 4.53681L135.732 5.85382C135.91 6.05711 136.145 6.55546 136.32 7.54648C136.488 8.50158 136.578 9.7818 136.578 11.4062H138.578ZM137.233 4.532C135.973 3.11059 134.151 2.47656 131.953 2.47656V4.47656C133.766 4.47656 134.965 4.98837 135.736 5.85862L137.233 4.532ZM131.953 2.47656H129.961V4.47656H131.953V2.47656ZM130.961 3.47656V2.03125H128.961V3.47656H130.961ZM129.961 3.03125H151.523V1.03125H129.961V3.03125ZM151.523 3.03125C159.392 3.03125 165.244 3.92829 169.17 5.64299L169.971 3.81014C165.668 1.93108 159.489 1.03125 151.523 1.03125V3.03125ZM169.172 5.64391C173.105 7.35044 176.27 10.1949 178.672 14.2231L180.39 13.1988C177.792 8.84155 174.317 5.69643 169.968 3.80922L169.172 5.64391ZM178.675 14.227C181.096 18.2455 182.32 22.9064 182.32 28.2422H184.32C184.32 22.5884 183.019 17.5618 180.388 13.1949L178.675 14.227ZM182.32 28.2422C182.32 35.3919 180.155 41.3033 175.86 46.0476L177.343 47.3899C182.006 42.2383 184.32 35.8321 184.32 28.2422H182.32ZM175.862 46.0456C171.089 51.2887 163.748 54 153.633 54V56C164.091 56 172.062 53.1904 177.341 47.3919L175.862 46.0456ZM153.633 54H129.961V56H153.633V54ZM144.863 52.1484C148.209 52.8861 151.06 53.2656 153.398 53.2656V51.2656C151.258 51.2656 148.562 50.916 145.293 50.1953L144.863 52.1484ZM153.398 53.2656C159.705 53.2656 164.985 51.0374 169.167 46.5828L167.708 45.2141C163.921 49.249 159.176 51.2656 153.398 51.2656V53.2656ZM169.167 46.5828C173.365 42.1095 175.414 36.0867 175.414 28.6328H173.414C173.414 35.7102 171.478 41.1977 167.708 45.2141L169.167 46.5828ZM175.414 28.6328C175.414 21.1294 173.367 15.091 169.165 10.6415L167.71 12.0147C171.477 16.0028 173.414 21.5008 173.414 28.6328H175.414ZM169.165 10.6415C164.976 6.20616 159.587 4 153.086 4V6C159.084 6 163.931 8.01259 167.71 12.0147L169.165 10.6415ZM153.086 4C150.638 4 147.885 4.39377 144.834 5.16317L145.323 7.10246C148.261 6.36143 150.846 6 153.086 6V4ZM144.078 6.13281V51.1719H146.078V6.13281H144.078ZM223.008 37.2656L223.93 36.878L223.672 36.2656H223.008V37.2656ZM202.5 37.2656V36.2656H201.841L201.581 36.8707L202.5 37.2656ZM198.906 45.625L199.825 46.0203L199.825 46.02L198.906 45.625ZM198.711 52.3828L198.073 53.1532L198.088 53.1651L198.103 53.1764L198.711 52.3828ZM203.711 53.5547H204.711V52.6236L203.782 52.5572L203.711 53.5547ZM203.711 55V56H204.711V55H203.711ZM187.031 55H186.031V56H187.031V55ZM187.031 53.5547L186.857 52.5699L186.031 52.7157V53.5547H187.031ZM191.328 52.0312L190.643 51.303L190.636 51.3099L191.328 52.0312ZM195.742 44.4141L194.823 44.021L194.821 44.0254L195.742 44.4141ZM214.375 0.820312V-0.179688H213.715L213.455 0.427288L214.375 0.820312ZM215.742 0.820312L216.665 0.434304L216.408 -0.179688H215.742V0.820312ZM234.18 44.8828L233.257 45.2688L233.257 45.2694L234.18 44.8828ZM238.203 51.7969L237.538 52.5434L237.546 52.551L237.555 52.5584L238.203 51.7969ZM243.281 53.5547H244.281V52.6131L243.341 52.5565L243.281 53.5547ZM243.281 55V56H244.281V55H243.281ZM222.383 55H221.383V56H222.383V55ZM222.383 53.5547L222.333 52.5559L221.383 52.6029V53.5547H222.383ZM226.641 52.5L226.019 51.7165L226.013 51.7218L226.006 51.7273L226.641 52.5ZM226.211 44.8828L225.289 45.2704L225.289 45.2709L226.211 44.8828ZM221.914 34.375V35.375H223.418L222.836 33.988L221.914 34.375ZM212.93 12.9688L213.852 12.5817L212.942 10.413L212.011 12.5732L212.93 12.9688ZM203.711 34.375L202.792 33.9795L202.191 35.375H203.711V34.375ZM223.008 36.2656H202.5V38.2656H223.008V36.2656ZM201.581 36.8707L197.988 45.23L199.825 46.02L203.419 37.6606L201.581 36.8707ZM197.988 45.2297C197.098 47.2971 196.578 48.9974 196.578 50.2344H198.578C198.578 49.4401 198.944 48.0675 199.825 46.0203L197.988 45.2297ZM196.578 50.2344C196.578 51.4034 197.143 52.383 198.073 53.1532L199.349 51.6124C198.769 51.1326 198.578 50.6799 198.578 50.2344H196.578ZM198.103 53.1764C198.66 53.6038 199.435 53.8914 200.319 54.0986C201.222 54.3104 202.334 54.4589 203.64 54.5521L203.782 52.5572C202.536 52.4682 201.538 52.3303 200.775 52.1514C199.992 51.968 199.543 51.7608 199.319 51.5892L198.103 53.1764ZM202.711 53.5547V55H204.711V53.5547H202.711ZM203.711 54H187.031V56H203.711V54ZM188.031 55V53.5547H186.031V55H188.031ZM187.205 54.5395C188.343 54.3386 189.313 54.1023 190.1 53.8234C190.87 53.5502 191.546 53.2086 192.021 52.7526L190.636 51.3099C190.46 51.4789 190.093 51.7037 189.431 51.9383C188.786 52.1672 187.933 52.3801 186.857 52.5699L187.205 54.5395ZM192.013 52.7594C193.509 51.3522 195.047 48.636 196.664 44.8027L194.821 44.0254C193.208 47.8483 191.804 50.2103 190.643 51.3031L192.013 52.7594ZM196.662 44.8071L215.295 1.21334L213.455 0.427288L194.823 44.021L196.662 44.8071ZM214.375 1.82031H215.742V-0.179688H214.375V1.82031ZM214.82 1.20632L233.257 45.2688L235.102 44.4968L216.665 0.434304L214.82 1.20632ZM233.257 45.2694C234.74 48.8079 236.153 51.3093 237.538 52.5434L238.868 51.0504C237.857 50.149 236.588 48.0411 235.102 44.4963L233.257 45.2694ZM237.555 52.5584C238.993 53.7823 240.918 54.4141 243.221 54.5529L243.341 52.5565C241.322 52.4348 239.861 51.8948 238.851 51.0353L237.555 52.5584ZM242.281 53.5547V55H244.281V53.5547H242.281ZM243.281 54H222.383V56H243.281V54ZM223.383 55V53.5547H221.383V55H223.383ZM222.432 54.5535C223.526 54.4995 224.477 54.38 225.27 54.1836C226.052 53.9897 226.75 53.7044 227.275 53.2727L226.006 51.7273C225.802 51.8945 225.426 52.0845 224.789 52.2422C224.163 52.3973 223.349 52.5057 222.333 52.5559L222.432 54.5535ZM227.262 53.2835C228.223 52.5211 228.773 51.517 228.773 50.3125H226.773C226.773 50.8268 226.568 51.281 226.019 51.7165L227.262 53.2835ZM228.773 50.3125C228.773 48.9455 228.175 46.9699 227.133 44.4948L225.289 45.2709C226.33 47.7437 226.773 49.3879 226.773 50.3125H228.773ZM227.133 44.4952L223.93 36.878L222.086 37.6533L225.289 45.2704L227.133 44.4952ZM222.836 33.988L213.852 12.5817L212.008 13.3558L220.992 34.762L222.836 33.988ZM212.011 12.5732L202.792 33.9795L204.629 34.7705L213.848 13.3643L212.011 12.5732ZM203.711 35.375H221.914V33.375H203.711V35.375ZM276.953 55L276.044 55.4173L276.312 56H276.953V55ZM256.484 10.4297L257.393 10.0123L255.484 10.4297H256.484ZM257.539 51.9141L256.785 52.5709L256.789 52.5751L257.539 51.9141ZM263.984 53.5547H264.984V52.5547H263.984V53.5547ZM263.984 55V56H264.984V55H263.984ZM245.547 55H244.547V56H245.547V55ZM245.547 53.5547V52.5547H244.547V53.5547H245.547ZM252.188 51.5234L253.01 52.0927L253.012 52.09L252.188 51.5234ZM252.266 6.13281L251.365 6.5676L251.371 6.58003L252.266 6.13281ZM250.234 4.25781L249.759 5.13752L249.773 5.14511L249.787 5.15224L250.234 4.25781ZM245.547 3.47656H244.547V4.47656H245.547V3.47656ZM245.547 2.03125V1.03125H244.547V2.03125H245.547ZM260.547 2.03125L261.454 1.61057L261.185 1.03125H260.547V2.03125ZM279.766 43.4766L278.858 43.8972L279.773 45.8697L280.675 43.8916L279.766 43.4766ZM298.672 2.03125V1.03125H298.029L297.762 1.61622L298.672 2.03125ZM313.672 2.03125H314.672V1.03125H313.672V2.03125ZM313.672 3.47656V4.47656H314.672V3.47656H313.672ZM307.031 5.50781L306.209 4.9386L306.207 4.94128L307.031 5.50781ZM307.266 51.9141L308.016 51.253L308.008 51.2438L307.266 51.9141ZM313.672 53.5547H314.672V52.5547H313.672V53.5547ZM313.672 55V56H314.672V55H313.672ZM291.172 55H290.172V56H291.172V55ZM291.172 53.5547V52.5547H290.172V53.5547H291.172ZM297.812 51.5234L296.988 50.9569L296.983 50.9651L297.812 51.5234ZM298.672 10.4297H299.672L297.763 10.013L298.672 10.4297ZM278.242 55V56H278.884L279.151 55.4167L278.242 55ZM277.862 54.5827L257.393 10.0123L255.576 10.847L276.044 55.4173L277.862 54.5827ZM255.484 10.4297V45.8203H257.484V10.4297H255.484ZM255.484 45.8203C255.484 47.4764 255.573 48.8612 255.763 49.9557C255.946 51.0123 256.246 51.9519 256.785 52.5708L258.293 51.2573C258.129 51.069 257.902 50.5892 257.733 49.6146C257.571 48.6779 257.484 47.4195 257.484 45.8203H255.484ZM256.789 52.5751C258.012 53.964 259.866 54.5547 262.109 54.5547V52.5547C260.187 52.5547 258.993 52.0516 258.289 51.253L256.789 52.5751ZM262.109 54.5547H263.984V52.5547H262.109V54.5547ZM262.984 53.5547V55H264.984V53.5547H262.984ZM263.984 54H245.547V56H263.984V54ZM246.547 55V53.5547H244.547V55H246.547ZM245.547 54.5547H247.422V52.5547H245.547V54.5547ZM247.422 54.5547C249.861 54.5547 251.822 53.8077 253.01 52.0926L251.365 50.9542C250.678 51.9475 249.462 52.5547 247.422 52.5547V54.5547ZM253.012 52.09C253.431 51.4804 253.672 50.6105 253.821 49.6217C253.974 48.6029 254.047 47.3308 254.047 45.8203H252.047C252.047 47.2785 251.976 48.4414 251.843 49.3237C251.706 50.2358 251.517 50.7331 251.363 50.9569L253.012 52.09ZM254.047 45.8203V11.2109H252.047V45.8203H254.047ZM254.047 11.2109C254.047 8.83848 253.791 6.94678 253.16 5.6856L251.371 6.58003C251.782 7.40218 252.047 8.8959 252.047 11.2109H254.047ZM253.166 5.69806C252.679 4.68831 251.806 3.92548 250.682 3.36339L249.787 5.15224C250.642 5.57973 251.123 6.0669 251.365 6.56756L253.166 5.69806ZM250.71 3.37811C249.517 2.73316 247.742 2.47656 245.547 2.47656V4.47656C247.674 4.47656 249.025 4.74079 249.759 5.13752L250.71 3.37811ZM246.547 3.47656V2.03125H244.547V3.47656H246.547ZM245.547 3.03125H260.547V1.03125H245.547V3.03125ZM259.64 2.45193L278.858 43.8972L280.673 43.0559L261.454 1.61057L259.64 2.45193ZM280.675 43.8916L299.582 2.44628L297.762 1.61622L278.856 43.0615L280.675 43.8916ZM298.672 3.03125H313.672V1.03125H298.672V3.03125ZM312.672 2.03125V3.47656H314.672V2.03125H312.672ZM313.672 2.47656H311.836V4.47656H313.672V2.47656ZM311.836 2.47656C309.376 2.47656 307.398 3.22053 306.209 4.9386L307.853 6.07702C308.539 5.08676 309.764 4.47656 311.836 4.47656V2.47656ZM306.207 4.94128C305.788 5.55081 305.547 6.42071 305.398 7.40959C305.244 8.42835 305.172 9.7004 305.172 11.2109H307.172C307.172 9.75272 307.243 8.58988 307.376 7.7076C307.513 6.79543 307.701 6.29815 307.855 6.07434L306.207 4.94128ZM305.172 11.2109V45.8203H307.172V11.2109H305.172ZM305.172 45.8203C305.172 47.4775 305.264 48.8646 305.461 49.9618C305.651 51.0224 305.964 51.9653 306.524 52.5843L308.008 51.2438C307.838 51.0555 307.604 50.5792 307.43 49.6085C307.262 48.6745 307.172 47.4184 307.172 45.8203H305.172ZM306.515 52.5751C307.739 53.964 309.592 54.5547 311.836 54.5547V52.5547C309.913 52.5547 308.72 52.0516 308.016 51.253L306.515 52.5751ZM311.836 54.5547H313.672V52.5547H311.836V54.5547ZM312.672 53.5547V55H314.672V53.5547H312.672ZM313.672 54H291.172V56H313.672V54ZM292.172 55V53.5547H290.172V55H292.172ZM291.172 54.5547H293.047V52.5547H291.172V54.5547ZM293.047 54.5547C295.505 54.5547 297.478 53.8113 298.642 52.0818L296.983 50.9651C296.324 51.9439 295.12 52.5547 293.047 52.5547V54.5547ZM298.637 52.09C299.056 51.4804 299.297 50.6105 299.446 49.6217C299.599 48.6029 299.672 47.3308 299.672 45.8203H297.672C297.672 47.2785 297.601 48.4414 297.468 49.3237C297.331 50.2358 297.142 50.7331 296.988 50.9569L298.637 52.09ZM299.672 45.8203V10.4297H297.672V45.8203H299.672ZM297.763 10.013L277.333 54.5833L279.151 55.4167L299.581 10.8464L297.763 10.013ZM278.242 54H276.953V56H278.242V54Z" fill="black" mask="url(#path-1-outside-1_1_5)"/>
</g>
<defs>
<filter id="filter0_d_1_5" x="0.9375" y="0.820312" width="320.734" height="63.1797" filterUnits="userSpaceOnUse" color-interpolation-filters="sRGB">
<feFlood flood-opacity="0" result="BackgroundImageFix"/>
<feColorMatrix in="SourceAlpha" type="matrix" values="0 0 0 0 0 0 0 0 0 0 0 0 0 0 0 0 0 0 127 0" result="hardAlpha"/>
<feOffset dx="4" dy="5"/>
<feGaussianBlur stdDeviation="2"/>
<feComposite in2="hardAlpha" operator="out"/>
<feColorMatrix type="matrix" values="0 0 0 0 0 0 0 0 0 0 0 0 0 0 0 0 0 0 0.25 0"/>
<feBlend mode="normal" in2="BackgroundImageFix" result="effect1_dropShadow_1_5"/>
<feBlend mode="normal" in="SourceGraphic" in2="effect1_dropShadow_1_5" result="shape"/>
</filter>
</defs>
</svg>
